<?xml version="1.0" encoding="UTF-8" standalone="no"?><!DOCTYPE svg PUBLIC "-//W3C//DTD SVG 1.1//EN" "http://www.w3.org/Graphics/SVG/1.1/DTD/svg11.dtd"><svg width="100%" height="100%" viewBox="0 0 3391 586" version="1.1" xmlns="http://www.w3.org/2000/svg" xmlns:xlink="http://www.w3.org/1999/xlink" xml:space="preserve" xmlns:serif="http://www.serif.com/" style="fill-rule:evenodd;clip-rule:evenodd;stroke-linejoin:round;stroke-miterlimit:2;"><g transform="matrix(4.16667,0,0,4.16667,-765.568,-897.29)"><g transform="matrix(144,0,0,144,177.087,335.299)"><path d="M0.586,-0.195l-0,-0.489l0.195,0l0,0.489c0,0.13 -0.081,0.195 -0.244,0.195l-0.195,-0l-0,-0.146l0.195,-0c0.033,-0 0.049,-0.017 0.049,-0.049Zm-0.049,-0.342l-0.293,-0l-0.098,-0.147l0.391,0l0,0.147Zm-0.488,0.342l-0,-0.098l0.195,0l0,0.098c0,0.032 0.016,0.049 0.049,0.049l-0,0.146c-0.163,-0 -0.244,-0.065 -0.244,-0.195Z" style="fill:#fff;fill-rule:nonzero;"/></g><g transform="matrix(144,0,0,144,296.618,335.299)"><path d="M0.586,-0.488c-0,-0.033 -0.016,-0.049 -0.049,-0.049l0,-0.147c0.163,0 0.244,0.066 0.244,0.196l0,0.293c0,0.13 -0.081,0.195 -0.244,0.195l-0.195,0l-0,-0.146l0.195,-0c0.033,-0 0.049,-0.017 0.049,-0.049l-0,-0.293Zm-0.342,0.293c0,0.032 0.016,0.049 0.049,0.049l-0,0.146c-0.163,0 -0.244,-0.065 -0.244,-0.195l-0,-0.293c-0,-0.13 0.081,-0.196 0.244,-0.196l0.195,0l0,0.147l-0.195,-0c-0.033,-0 -0.049,0.016 -0.049,0.049l0,0.293Z" style="fill:#fff;fill-rule:nonzero;"/></g><g transform="matrix(144,0,0,144,416.149,335.299)"><path d="M0.049,-0.83l0.732,0.732l0,0.244l-0.732,-0.732l-0,-0.244Zm0.537,0.469l-0,-0.323l0.195,0l0,0.518l-0.195,-0.195Zm-0.342,0.039l0,0.322l-0.195,0l-0,-0.518l0.195,0.196Z" style="fill:#fff;fill-rule:nonzero;"/></g><g transform="matrix(144,0,0,144,533.782,335.299)"><path d="M0.02,-0l0.537,-0.684l0.254,0l-0.538,0.684l-0.253,-0Zm0.358,-0.537l-0.329,-0l-0,-0.147l0.444,0l-0.115,0.147Zm0.074,0.391l0.329,-0l0,0.146l-0.444,0l0.115,-0.146Z" style="fill:#b100b1;fill-rule:nonzero;"/></g><g transform="matrix(144,0,0,144,651.204,335.299)"><path d="M0.02,-0l0.537,-0.684l0.254,0l-0.538,0.684l-0.253,-0Zm0.358,-0.537l-0.329,-0l-0,-0.147l0.444,0l-0.115,0.147Zm0.074,0.391l0.329,-0l0,0.146l-0.444,0l0.115,-0.146Z" style="fill:#b100b1;fill-rule:nonzero;"/></g><g transform="matrix(144,0,0,144,765.391,335.299)"><path d="M0.586,-0.488c-0,-0.033 -0.016,-0.049 -0.049,-0.049l0,-0.147c0.163,0 0.244,0.066 0.244,0.196l0,0.293c0,0.13 -0.081,0.195 -0.244,0.195l-0.195,0l-0,-0.146l0.195,-0c0.033,-0 0.049,-0.017 0.049,-0.049l-0,-0.293Zm-0.342,0.293c0,0.032 0.016,0.049 0.049,0.049l-0,0.146c-0.163,0 -0.244,-0.065 -0.244,-0.195l-0,-0.293c-0,-0.13 0.081,-0.196 0.244,-0.196l0.195,0l0,0.147l-0.195,-0c-0.033,-0 -0.049,0.016 -0.049,0.049l0,0.293Z" style="fill:#fff;fill-rule:nonzero;"/></g><g transform="matrix(144,0,0,144,884.923,335.299)"><path d="M0.049,-0.83l0.732,0.732l0,0.244l-0.732,-0.732l-0,-0.244Zm0.537,0.469l-0,-0.323l0.195,0l0,0.518l-0.195,-0.195Zm-0.342,0.039l0,0.322l-0.195,0l-0,-0.518l0.195,0.196Z" style="fill:#fff;fill-rule:nonzero;"/></g></g></svg>